<svg xmlns="http://www.w3.org/2000/svg" xmlns:xlink="http://www.w3.org/1999/xlink" xml:space="preserve" width="2800" height="2800" viewBox="0 0 2800 2800"><style>.st1{clip-path:url(#SVGID_2_)}.st2{fill:#adadad}.st3{fill:#c8c9c7}.st4{fill:#f6f5f4}.st5{fill:#dde1df}.st7{fill:#979996}.st8{fill:#4273b6}.st9{clip-path:url(#SVGID_2_)}.st10,.st9{fill:#abd0ef}</style><path id="Capa_2" d="M-23.5-23.5h2846.9v2846.9H-23.5z" style="fill:#2d3e4c" transform="rotate(90 1400 1400)"/><g id="Capa_4"><defs><path id="SVGID_1_" d="M-23.5-23.5h2846.9v2846.9H-23.5z" transform="rotate(90 1400 1400)"/></defs><clipPath id="SVGID_2_"><use xlink:href="#SVGID_1_" style="overflow:visible"/></clipPath><g class="st1"><path d="M2296.5 2582c-1.3-11.9-3-24-5.7-35.7-2.2-9.8-6.5-19.9-15.2-25.6-9.8-6.4-20.5-5.4-31.5-3.9-13.2 1.8-26.4 3.6-39.5 5.5-24.4 3.6-48.7 7.5-73 11.7-9.1 1.6-14.1 12.7-11.9 20.9 3.9 14.7 7.9 29.4 11.8 44.1.9 3.4 2.5 6 4.6 7.9 6.8 46.6-10.7 96.4-28.8 138.4-20.2 46.9-47.4 91.1-80.5 130.1-34.5 40.6-74.7 74.1-119 103.4-46.4 30.6-89.3 63.8-124.7 107-38.1 46.5-67.2 99.4-85.4 156.7-3.1 9.7 5.5 22.8 16.4 21.6 43.9-4.9 87.7-9.7 131.6-14.6 21.4-2.4 42.8-4.7 64.2-7.1l32.1-3.6c11.5-1.3 24.2-1.3 35.5-4.1 9.5-2.4 16.2-9.2 18.2-18.7 2-9.6-1.5-20.4-1.6-30.2-.2-17.9 3.6-35.4 9.9-52.1 13.3-35.7 38.6-65.5 64.8-92.5 26.9-27.8 55-54.2 80.7-83.2 25.5-28.8 49.4-59.2 70.2-91.5 42.7-66.2 72-141.3 78-220.2 1.5-21.3 1.2-42.9-1.2-64.3" class="st2"/><path d="M2222 3178.7c-.9-12.9-2.7-25.7-5.3-38.4-10.3-50.9-33.9-98.5-61.3-142.2-53-84.8-126.2-159.1-163-253.3-19.2-49.1-32.4-110.7-6.5-159.8 9.3-17.5-13.9-33.3-26-21.8-1.6-.5-3.4-.8-5.3-.8-8.3 0-18.2 7.8-17 17 6.5 49.7-25 94.4-42.9 138.5-17.3 42.7-27.9 88-31.7 133.9-3.8 45.6-.1 92.3 12.3 136.5 12.8 45.2 35.2 85 64.3 121.6 30.1 37.9 66.8 73.8 81.3 121.3 5.5 17.9 34 15.2 33.4-4.5-.1-4.9-.3-9.9-.4-14.8-.2-7.6-4.5-12.6-9.9-14.9-15.4-33-39-61.3-62.4-89.3-28.1-33.7-53.2-68.5-67.7-110.3-29.3-84.4-21.4-178.1 9.9-260.8 5.2-13.8 11.7-27.6 18.3-41.4 9.4 47.9 31.6 95 55.1 134.1 47.4 78.7 111 146.7 153.4 228.6 11.6 22.5 21.4 45.8 28.2 70.1 3.4 12.2 6.3 24.8 7.9 37.4.7 5.7 1.2 11.5 1.5 17.3q.3 4.05.3 8.1c-3.6 3.3-6 8.2-5.8 14.4.3 17.3 21.3 24.5 33.1 12.5 9.6-9.7 7.1-26.5 6.2-39" class="st3"/><path d="M2182.8 3225.9c-8.8-53-29.4-104.4-59.9-148.7-31-45-72-80.8-112.3-117.2-38.1-34.4-73.8-70.3-100.5-114.4-25.4-42-43-88.1-52.6-136.2-10.6-53.1-10.7-108.4.3-161.4 1.9-9-2.6-18.4-11.9-20.9-8.4-2.3-19.1 2.8-20.9 11.9-20.8 100.3-5.7 205.9 40.8 297 23.8 46.5 56.2 87.3 93.8 123.3 39.6 37.9 83.3 71.8 118.2 114.3 38 46.2 62.3 102.6 72.1 161.4 1.5 9.1 12.7 14.1 20.9 11.9 9.7-2.7 13.5-11.9 12-21" class="st4"/><path d="M2158.3 2465.3c-7.1-27.3-20.2-52.9-35.1-76.7-7.5-12.1-15.6-23.8-23.8-35.4-7.8-11.2-15.6-23.6-28.3-29.8-14.4-7.1-29.9-4.5-44.9-.9-11.5 2.7-23.2 4.9-35 6.3-56.5 6.8-118.2 4.8-166.8 39.2-7.5 5.3-11 14.9-6.1 23.3.7 1.2 1.6 2.3 2.6 3.3 1.3 11 3 22 5 32.9 2.6 14.3 7.6 28.1 21 35.7 12.4 6.9 27.9 8 41.6 10.6 15.8 3 31.5 6 47.3 9 31 5.9 62 11.7 92.9 17.6 30.5 5.8 61.3 13.6 92.2 17.1 12.6 1.4 25.9-1.1 34.2-11.4 9.5-12.1 6.7-27.2 3.2-40.8" class="st2"/><path d="M2276.4 2350.8c-4.5-19.6-4.8-36.5-17.8-51.2-1.9-6.9-13.6-14.3-17.3-20.4-10.6-17.6-29.1-27-48.9-30-17.5-2.6-35.6-3.8-49.3 6.5-41.1 12.6-78.6 40.2-96.2 80-22.6 50.7-12.4 111.3 32.8 145.8 41.1 31.4 99.6 32.3 142.9 4.5 44.7-28.6 65.5-83.7 53.8-135.2" class="st3"/><path d="M2321 2486.4c-2.6-16.5-12.2-32-26.9-40.4-19.2-11-41.7-8.3-62-2.2-20.5 6.2-40.1 13.3-61.3 16.5-20 3.1-40.6 3.4-60.8 2.5-95.5-4.1-188.3-37.8-284.6-30-7.9.6-14.7 5.5-16.5 13.1-15.3 10.7-25.2 29.1-20.2 48.9 5 19.7 22.3 32.5 39.6 41.1 19.5 9.7 39.8 18.1 60.3 25.5 82.3 30 171.4 42.7 258.8 36.8 41-2.7 85.6-6.8 123.2-24.4 34-16.1 56.6-49.1 50.4-87.4" class="st5"/><path d="M1141.1 1864.8c-6.2-18.4-20.8-31.4-34.5-44.3-15.7-14.8-31.3-29.6-47-44.4-30.9-29.2-61.8-58.5-92.8-87.7l-52.8-50c-16.7-15.8-33-32.5-50.4-47.5-15.5-13.3-37.1-24.3-56.6-12.2-3.6 2.2-6.7 5.1-9.3 8.3-4.6 2-8.4 5.7-9.2 10.8-5.5 37.9-10 76.1-3.7 114.2 6.5 38.7 27.8 69.8 54.5 97.5 55 57.2 115.9 109.1 179.8 156 14.8 10.9 31.3 21.3 50.5 20.1 16-1.1 30.4-9.4 40.7-21.6 10.6-12.5 17.6-26.9 23.6-42 7-18 13.6-38.1 7.2-57.2" class="st3"/><path d="M978.4 1324.6c-14.5-34.6-34.7-78.9-74.6-89.5-23.2-6.2-48.6 2.2-51.1 28.8-.9 10.2 1.5 20.8 2.8 30.9 1.7 13.1 3.5 26.2 5.3 39.3 6.7 47.9 14.4 95.6 22.9 143.2-5.3 6-6.7 15.1 1 22.1 18.4 16.7 35.6 34.8 51 54.4 13.4 17 25.4 43.9 50.7 43.2 7.1-.2 14.9-5.1 16.4-12.5 18.1-86.7 9.9-178.1-24.4-259.9M1158.4 1444.7c-.3-15.6-2.4-32.9-11.6-46-11.5-16.4-34.8-26.7-52.4-12.8-7 5.5-10.6 13-13.8 21.2-4.1 10.6-7.7 21.4-11.5 32.1-7.3 20.6-14.6 41.3-21.8 62-16.3 46.9-32 94-47.4 141.2-3.2 9.9 2.5 17.2 10.2 19.8 1.2.8 2.5 1.4 3.9 2 32.3 12.9 63.1 29.5 91.9 49 8.7 5.9 22.9.2 25-10.2 8.7-42.9 15.4-86.2 20-129.7 4.6-42.5 8.3-85.8 7.5-128.6" class="st2"/><path d="M923.4 1546.8c-9-92.9-18.3-187.4-49.2-276.1-15-43-34.6-86.3-62.4-122.7-15.2-19.9-34.5-35.7-60.1-38.4-21.8-2.3-42.7 8.8-53.7 27.5-11 18.5-12.5 41.7-11.5 62.7 1.4 29.5 4.7 59 7 88.5.1 1.3.3 2.6.7 3.9-1.3 5-.3 10.6 4.4 15.3 73.6 75 138.4 158.1 193.1 247.8 8.2 13.5 33.4 9.1 31.7-8.5" class="st3"/><path d="M2160 2052c-12.5-43-26-85.7-39.5-128.4-27.1-85.7-54.2-171.6-73.1-259.5-9.3-43.5-16.6-87.4-20.6-131.8-3.8-42.1-3.3-87.3-31.7-121.5-24.7-29.8-66.9-39.5-99.4-16-36.1 26.2-43.3 70-44 111.8-.8 45.7-2.9 91-8.7 136.4s-14.2 90.5-23.3 135.3q-5.55 27.45-11.4 54.9c-58.2-2.5-116.4-5.9-174.5-10.2-58.7-4.4-117.9-8.4-176.2-16.9-28.2-4.1-56.3-9.5-83.8-17.3-13.4-3.8-26.7-8.2-39.7-13.3-12.5-4.9-24.8-12.9-37.8-16.2-15.5-3.9-29.8 2.3-37.2 16.5-6.8 13.1-11.9 27.5-17.7 41.1-12.3 28.5-25.9 56.7-36.8 85.7-7.2 19.1 3.2 32.6 15 46.6 11.4 13.4 22.7 26.8 34.1 40.2l53.5 63.1c9.1 31.2 37.6 48.4 66.5 62.4 30.9 15 59.8 32.7 87.3 53.3 55.4 41.7 103.9 91.6 157.7 135.2 56.2 45.4 118.6 84.2 190.9 96.6 44.3 7.6 89.3 7 133.8 1.5 41.2-5.1 83.7-11.7 122.5-27.2 37.2-14.8 69.5-37.9 90.4-72.6 20.2-33.6 28.7-73.7 28.6-112.6-.2-46.8-12-92.6-24.9-137.1m-872.8-260c.1.1.2.2.4.2-1.8 2.7-1.1-1.4-.4-.2" class="st5"/><path d="M1884.7 2262c-15.4-21.2-34-40.8-51.2-60.6-17.1-19.7-34.4-39.1-52.2-58.1-35.9-38.1-74.1-74-115.8-105.6-44.3-33.5-93.1-59.6-142.1-85.4-48.3-25.4-97.2-50.5-149.2-67.4-13.1-4.2-26.3-7.9-39.7-10.9-10.9-2.5-21.3 5-21.6 16.4-.7 29.2.3 58.5 3 87.5-.7 36.4-1.4 72.8-2.1 109.1l-.9 44.8c-.2 13.3-.3 27.2 3.7 40 8.2 26.6 31.5 41.6 52.8 57.1 93.3 67.7 188.6 132.7 285.8 194.7 11.6 7.4 23.6 16.6 37.4 19.2 14.6 2.7 27.9-1.6 40.3-9.2 23.2-14.1 45-30.9 66.2-47.8 21-16.7 41.2-34.5 60.4-53.2 9.5-9.2 20.7-18.6 27.7-29.9 8.1-13 6.4-28.3-2.5-40.7M2186.8 2026.6c-2.9-13.8-6.4-27.8-11-41.3 2.4-57.6-22.2-111.3-48.9-161.9-14.7-27.8-30-55.5-40.4-85.3-10.5-30-16.7-61.3-21.8-92.6-2.5-15.8-4.8-31.5-7.2-47.3-2.2-14.7-3-31.1-7.9-45.2-6.5-19.1-23.9-19.2-40.9-18.8l-51.2 1.2c-16.6.4-34.1-.8-50.4 2.2-15.6 2.8-26.8 14.6-29.8 30-2.9 15-2.6 31-2.7 46.2-.2 16.1.2 32.3 1 48.4 3.5 65.6 15.3 130.7 35.1 193.3-5.2-.7-10.5-1.3-15.7-2-25-3.2-51.5-9.1-76.8-6.4-23.6 2.6-46.2 14-56.9 36.2-9.6 20-9.5 42.4-5.2 63.9 4.6 23.2 15.1 45.2 26 66 12.2 23.5 26.3 46 41.2 67.9 27.4 40.4 56 80.7 87.3 118.3 28.8 34.6 61.9 67.1 101.7 88.7 37.8 20.5 86.4 34.7 128.4 18.4 21.8-8.5 38.7-24 47.9-45.6 9.3-21.9 10.2-46 10.1-69.5-.1-55-.7-110.6-11.9-164.8M2018.3 1437c-11.6-30.9-20.1-62.9-25.4-95.5-5.1-31.8-3.9-63.7-7.5-95.6-1.7-15.7-3.6-34.9-18.5-44-12.6-7.7-31.2-6.7-45.6-6.2-30.3 1.1-55.5 13.9-72.5 39.2-15.1 22.4-20.8 49.7-24.1 76.1-4 32.1-4.3 64.6-.9 96.7 2 18.8 5 37.5 9.3 56 4 17.1 8 36.2 16.2 51.9 7.7 14.7 21.7 18.8 36.3 17.3 3 1.3 6.5 1.7 10.5.8l52.2-11.7c16.2-3.7 33-6.5 49-11.2 13.5-4 27-11.9 31.4-26.1 5.1-16.7-4.8-32.7-10.4-47.7" class="st4"/><path d="M1271.7 1754.4c-.1 0-.2 0-.2-.1-.6-.8-1.3-1.5-2-2.2-7-6.5-17.6-10.6-25.9-15.2l-93.9-52.5-93.9-52.5c-12.7-7.1-26.5-17.3-40.9-21.7-23.1-42.7-50.4-83-81.4-120.5-16.2-19.6-33.4-38.4-51.5-56.2-9.2-9.1-18.7-17.9-28.4-26.4-9.9-8.7-20-18-32.7-22.3-1.5-.5-2.9-.9-4.4-1.2-26.5-82.1-83.7-153.3-157.7-197.5-19.1-11.4-39.4-20.9-60.4-28.5-12.2-4.4-26-6.9-36.7 2.2s-11.4 24.5-10.3 37.6c2.3 28.3 14.7 53.9 26.7 79.1 12.3 25.7 25.1 51.2 38.1 76.5 7.5 14.5 15 29.1 22.6 43.6 6.5 12.6 12.7 25.5 21.2 36.9 11.7 15.8 28.6 27.7 46.9 30-1.5 4.3-2.6 8.7-2.9 13.3-1 14.5 6.3 27.5 12.8 39.9 6.8 13 13.7 25.9 20.6 38.8 13.7 25.3 27.7 50.5 42 75.4 15.2 26.5 29.5 54.9 48.3 79.1 11.7 15 29.7 27 48.3 28.3-.2 1.5-.2 3.1-.1 4.6 1 16.3 18.3 28.8 29 39.4 45.9 45.2 96.1 86.2 149.3 122.4 15 10.2 30.3 20 45.8 29.4 15.8 9.6 31.8 19.5 49 26.3 28.5 11.3 67.3 5.8 81.1-23.5 3.1-3.1 4.9-7.5 5.4-12.2 5.3-52.6 38.1-98 48.2-149.5 1.6-8.9-2.7-18.3-12-20.8m-686.4-569.8v-1.5c1.1.2.8.8 0 1.5" style="fill:#dfe3e0"/><path d="M1004.6 1599.9c-1.1 0-2.2 0-3.3-.1-5.7-.1-9 3.6-9.9 8-45.3 38-88.4 78.5-129.2 121.4-9.3 9.8 5.5 24.7 14.8 14.8 42.5-44.7 87.6-86.8 135-126.2 7.4-6 1.1-17.7-7.4-17.9M823.1 1383.9c-2.7-4.5-9.7-7.1-14.4-3.8-37 26.7-75.2 51.6-114.6 74.6-11.7 6.8-1.1 25 10.6 18.1 39.4-23 77.6-47.9 114.6-74.6 4.6-3.2 6.9-9.1 3.8-14.3M1280.8 1746c-5.9-1.6-11 2-12.9 7.3-18.3 49.7-42.6 97-72.1 141-3.2 4.7-.9 11.6 3.8 14.4 5.2 3 11.2 1 14.4-3.8 30.5-45.5 55.3-94.6 74.2-146 1.9-5.3-2.2-11.5-7.4-12.9" class="st3"/><path d="M1302.4 2023.8c-4.3-34.5-18.4-66.6-38.2-95-20.4-29.3-45.4-55.5-72.5-78.7-14-11.9-28.8-22.7-46.3-28.9-17.9-6.3-38-5.4-55.7 1.1-20 7.4-37.1 19.7-53.8 32.7-16.3 12.8-30.9 26.7-38.2 46.7-1.6 4.4-2.8 8.8-3.6 13.1-9.6 28.5-5.1 61.3 9.6 87.5.1.2.2.3.3.5 6.6 21 20.2 39.6 37.5 53.8 27.9 22.7 62.3 36.7 97 45.3 37.8 9.4 77.6 11.8 116 4.2 18.3-3.6 35.1-12.2 43.1-29.9 7.1-16.2 7-35 4.8-52.4" class="st4"/><path d="M2035.6 1502.9c-8.1-4.2-19.4.5-27.7 2.1-10.2 2-20.4 3.9-30.6 5.6-40 6.7-80.4 10.7-121 12.3-13.5.5-13.5 21.5 0 21 29.5-1.2 58.9-3.6 88.2-7.4q22.2-2.85 44.1-6.6 10.5-1.8 21-3.9c3.8-.7 7.6-1.5 11.4-2.3.9-.2 1.8-.4 2.6-.6 2 1.5 4.7 2.5 7.7 2.4 13.1-.2 14.8-17.1 4.3-22.6" class="st3"/><path d="M2183.4 1975.5c-5.2-3-11.2-1-14.4 3.8-9.2 13.8-26.1 20.9-42.2 22.1-21.1 1.6-41.4-5.9-59.7-15.9-19.2-10.4-37.5-22.9-55.2-35.8-17.1-12.4-33.4-26-48.3-41.1-16.5-16.7-30.7-35.2-41.7-56-6.3-11.9-24.5-1.3-18.1 10.6 22.1 41.6 56.7 74.4 94.3 102.1 18.9 13.9 38.6 27.5 59.3 38.6 20.8 11.2 44.2 19.8 68.1 18.4 24.4-1.4 47.9-11.9 61.7-32.6 3.2-4.6.9-11.5-3.8-14.2" class="st5"/><path d="M901.2 1356.8c-2.7-4.7-9.6-6.9-14.4-3.8-2.9 2-9.2 1-13 1.3-6.1.5-12.2 1.3-18.2 2.3-11.8 1.9-23.3 5-34.5 9.1-5.3 1.9-8.9 7.1-7.3 12.9 1.4 5.1 7.6 9.3 12.9 7.3 11.8-4.3 23.9-7.5 36.3-9.4 5.7-.9 11.5-1.4 17.3-1.6 6-.3 12.1-.3 17.2-3.8 4.6-3.1 6.7-9.2 3.7-14.3" class="st2"/><path d="M840.5 1723.6c-2.7-4.6-9.7-7-14.4-3.8-10.4 7.3-20.8 14.5-31.2 21.8-4.6 3.2-6.8 9.2-3.8 14.4 2.7 4.6 9.7 7 14.4 3.8 10.4-7.3 20.8-14.5 31.2-21.8 4.7-3.3 6.8-9.3 3.8-14.4M998.9 1454.4c-24.2.4-48.3 1.5-72.5 3.4-5.7.4-10.5 4.5-10.5 10.5 0 5.3 4.8 10.9 10.5 10.5 24.1-1.9 48.3-3 72.5-3.4 13.5-.3 13.5-21.3 0-21M1149.1 1567.3c-40 3.2-77.3-17.6-116.8-20.8-5.7-.5-10.5 5.2-10.5 10.5 0 6.1 4.8 10 10.5 10.5 39.7 3.2 76.3 24.1 116.8 20.8 5.7-.4 10.5-4.5 10.5-10.5 0-5.3-4.8-10.9-10.5-10.5" class="st7"/><path d="M1396.2 1790.6c-4.5-2.6-12-1.4-14.4 3.8-11 24.4-16.9 50.5-16.6 77.3.1 13.5 21.1 13.5 21 0-.2-22.9 4.3-45.8 13.8-66.7 2.3-5.2 1.5-11.3-3.8-14.4M1825.6 1825h-.3c-.2-.1-.3-.2-.5-.3-1.5-5.3-7.5-9.1-12.9-7.3-5.4 1.7-9 7.3-7.3 12.9 2.7 9.2 11.4 16 21.1 15.8 5.5-.1 10.8-4.8 10.5-10.5-.4-5.7-4.8-10.7-10.6-10.6" class="st3"/><path d="M1879.6 2255c-21.3-3.7-38.9 6.8-57.5 15.3-7.9 3.6-16.5 6.7-25.1 5.6-9.2-1.2-17.3-7.1-24.1-13.1-17.1-15-32.8-31.8-49.1-47.6-16.3-15.9-32.7-31.8-49.2-47.6-65.8-62.6-134.6-123.1-212.1-171-43.3-26.8-89.3-49.2-137.6-65.5-12.8-4.3-18.3 15.9-5.6 20.2 84.9 28.7 161.4 77.6 230.8 133.7 70.9 57.4 134.9 122.2 200.3 185.5 9.1 8.8 18.8 17.3 30.6 22.3.4.2.9.3 1.3.5-9.3 29.1-18.9 58.5-35.8 84.3-8.3 12.7-18.5 23.7-30.5 33-13 10.2-26.4 19.4-35.6 33.4-7.4 11.3 10.7 21.9 18.1 10.6 8.6-13.1 22.9-21.5 34.8-31.2 12.7-10.3 23.3-22.9 32.1-36.6 17.5-27.3 27.7-58.6 37.5-89.3.1-.3.1-.5.2-.8 4.5-.2 8.9-.9 13.3-2.2 10.8-3.1 20.8-8.6 31-13.3 8.3-3.9 17.9-7.6 26.6-6.1 5.6 1 11.3-1.5 12.9-7.3 1.4-4.9-1.7-11.8-7.3-12.8M1285.2 2080.2c-18.7-44.1-44.8-84.8-76.6-120.6-15.6-17.5-32.6-33.8-50.9-48.5-12.6-10.2-25.7-19.9-39.8-27.6q15-28.5 27.9-58.2c2.3-5.2 1.5-11.3-3.8-14.4-4.4-2.6-12.1-1.5-14.4 3.8-8.8 20.2-18.3 40.1-28.6 59.6 0 .1-.1.1-.1.2-1.7-.7-3.5-1.3-5.2-1.9-26.2-8.9-56.7-8.3-80.4 7.1-11.3 7.3-.8 25.5 10.6 18.1 40.1-26 87.2 2.4 119 28.1 34.6 27.9 64.7 61.2 88.9 98.4 13.7 21.1 25.5 43.3 35.3 66.4 2.2 5.2 9.9 6.4 14.4 3.8 5.4-3.1 6-9.1 3.7-14.3M2188.8 2219.8c-2.7-4.5-9.7-7.1-14.4-3.8-28.4 20.4-64.7 29.5-99.4 24.1-38.3-6-68.6-29.2-95.7-55.5-27.9-27.1-54.7-55.5-80.3-84.8-25.5-29.1-49.7-59.5-70.9-92-23.7-36.1-43.7-74.7-57.6-115.7-4.3-12.7-24.6-7.3-20.2 5.6 26.2 77.5 72.6 145.6 125.5 207.2 26.6 31 54.8 60.9 83.8 89.6 28.7 28.4 61.1 55.2 101.4 64.1 42.4 9.4 88.7.8 124.1-24.6 4.6-3.2 6.8-9 3.7-14.2" class="st5"/><path d="M2246.5 2273.9c-1.4-5-7.6-9.5-12.9-7.3-28.5 11.4-60.5 25.2-76.1 53.5-9.1 16.6-10 35.6-10.6 54.1-.6 18.9.4 39.1 10.1 55.8 9.5 16.4 27.9 29.5 47.5 27.3 5.6-.6 10.5-4.4 10.5-10.5 0-5.2-4.8-11.1-10.5-10.5-12.3 1.4-22.8-5.9-29-16.3-7.9-13.1-8.1-29.3-7.7-44.1.4-14.6.2-30.7 7.1-44 5.6-10.8 14.6-19.1 24.7-25.6 12.3-8 25.9-14 39.5-19.4 5.3-2.2 9-7.1 7.4-13" class="st2"/><path d="M2264.3 2315.7c-2.7-4.7-9.6-6.9-14.4-3.8-25.4 17.1-51.6 37.5-55.4 70.1-3.4 29.4 20.8 58.4 51.6 52.5 5.6-1.1 8.8-7.8 7.3-12.9-1.6-5.8-7.3-8.4-12.9-7.3-7.3 1.4-15.1-3-19.8-8.8-6.1-7.5-6.7-17.8-4.4-26.8 5.7-22.4 26.1-36.4 44.2-48.5 4.7-3.3 6.8-9.4 3.8-14.5" class="st2"/><path d="M1464.2 2073.1c-1.1-10.3-7.2-18.4-17-22.3-14.3-5.7-29.1-.8-39.4 9.1-1.4.8-2.6 2-3.4 3.6-1.2 1.5-2.4 3.1-3.5 4.7-6 9.4-9 20.3-11.9 30.9-3.5 13-7.1 26-10.6 39.1-2 7.5-4 14.9-6.1 22.4-4.8 12.1-9.5 24.3-13.4 36.7-5.9 19.3-13 48.5 8.4 61.4 9.5 5.8 21.4 4.8 29.5-2.9 7.2-6.9 11.8-17.2 16.5-25.8 21.4-38.9 37.2-80.9 46.3-124.2 2.3-10.4 5.7-22.1 4.6-32.7M1524.4 2224.8c-1.7-5.6-5.3-10.3-10.5-13.7-.5-.3-1.1-.7-1.6-1-3.3-3.1-7.1-5.7-11.1-7.6-8.1-4-19.9-7.8-28.7-4.1-12.3 5.2-11.8 20.7-7 31 4.4 9.4 12.9 15.6 22.2 19.5 5.8 3.2 12.5 5 18.7 3.7 5.9-.3 11.5-2.4 15.8-7.3 5.6-6.2 5.8-14.2 2.2-20.5M1604.5 2265c-9.6-6.8-25.7-14.1-37.7-10.7-2.6.7-4.6 1.8-6.2 3.2-2.7 1-5 3.2-6 6.7-4.1 14 4.9 26.3 15.6 34.3 5.1 3.8 10.5 6.8 16.3 9.2 4.4 1.9 9 3.8 13.8 4.3 3.5 1 7.2 1.4 11 .1 6.4-2 11-7.8 12.4-14.3 3-13.9-8.8-25.5-19.2-32.8" class="st8"/></g><path d="M2148.6 788.2c-5.2-23.6-39.6-29.5-52.4-9.1-3 4.7-4.5 10.5-4.3 16.1-59.7 26.5-118.6 55.1-176.3 85.7-34 18-67.6 36.8-100.8 56.2-40.1-52.9-80.3-105.8-120.4-158.7-7.9-10.5-15.9-20.9-23.8-31.4.7-2.5 1.2-5 1.3-7.6.5-18.7-17.9-29.4-34.2-26.6-2.5-.5-5.2-.1-7.7 1-18.9 8.3-20.6 37-6.2 50.2 10.6 9.7 24.1 8.1 34.1.8 35.9 47.3 71.8 94.7 107.8 142 10.4 13.7 20.8 27.4 31.1 41-20.8 12.4-41.5 25-62 38-14.9 9.4-29.8 19-44.5 28.7-7.2 4.8-14.5 9.6-21.7 14.4-6.7 4.5-13.7 8.9-19.4 14.7-12.9 13.2-13.6 30.2-13.6 47.6 0 18.9.1 37.9.1 56.8.2 62.4.3 124.7.5 187.1-87.9-66.5-175.9-133-263.8-199.4-24.7-18.7-49.4-37.4-74.1-56 .1-.7.2-1.5.1-2.4q-4.65-100.5-2.4-201c6.6-4.4 11.6-11.2 14.1-18.6 9.2-28-26.2-46.9-49.2-36.3-10.9 5-17.7 16.6-17.1 28.6.6 11.1 7.6 21.1 18.2 23.8 3.6 3.5 8.1 5.9 13 6.9-1.4 65.6-.5 131.2 2.5 196.7.2 3.6 1.8 6.2 4 7.9-1.1 4.5 1.1 8.8 4.9 11.6l267.9 202.5c25.2 19 50.3 38.1 75.5 57.1 1.9 1.4 4.3 1.8 6.6 1.4v14.6l.6 225.2c0 9.3 0 18.6.1 27.9 0 13.5 21 13.5 21 0l-.6-221.2-.6-222.2-.1-55.8c0-9 0-17.9-.1-26.9 0-8.5-.7-17.3.5-25.8 2.1-15.5 16.4-22.6 28.2-30.5 14.2-9.5 28.4-18.8 42.8-28 58.2-37.3 117.7-72.4 178.5-105.2 60.5-32.7 122.2-63.2 184.9-91.3 3.1-1.4 6.3-2.8 9.4-4.2 1.7 1.9 3.6 3.5 5.6 5 21 13.8 47.2-7.9 42-31.3" class="st9"/><path d="M2029.4 1066.9c-60-2.1-120.1-1.4-180.1 2.2-5.7.3-10.5 4.6-10.5 10.5 0 5.4 4.8 10.8 10.5 10.5 59.9-3.6 120-4.4 180.1-2.2 13.6.5 13.5-20.5 0-21" class="st9"/><path d="M2141.4 1009.7c-46.6-1.2-93.3-2.5-139.9-3.7-13.5-.4-13.5 20.6 0 21 46.6 1.2 93.3 2.5 139.9 3.7 13.5.3 13.5-20.7 0-21" class="st9"/><path d="M2189.4 1058.1c-22.6 1.7-45.3 3.4-67.9 5.2-5.7.4-10.5 4.5-10.5 10.5 0 5.3 4.8 10.9 10.5 10.5 22.6-1.7 45.3-3.4 67.9-5.2 5.7-.4 10.5-4.5 10.5-10.5 0-5.3-4.8-10.9-10.5-10.5" class="st9"/><path d="M2141.7 1113c-29.3 2.3-58.8 2.7-88.2 1.2-13.5-.7-13.5 20.3 0 21q44.1 2.1 88.2-1.2c5.7-.4 10.5-4.5 10.5-10.5 0-5.4-4.9-11-10.5-10.5" class="st9"/><path d="m1307 1347.5-1.5-1.2c-.9-1.1-2-2-3.3-2.6-77-60.8-152.9-123-227.7-186.5-19.6-16.7-39.2-33.4-58.7-50.3.7-1.4 1.1-3 1-4.9-1.9-68.8-3.7-137.5-5.6-206.3l-3.9-143c1.4-.2 2.8-.7 4.2-1.6 34.4-22.3 68.5-45.2 102.2-68.5 16.7-11.6 33.4-23.3 49.9-35.1 16.9-12.1 34.5-23.8 50.7-36.9.2-.2.4-.3.6-.5 4 1.9 8.3 2.9 13 2.7 24.5-1.3 33.5-31.2 23.6-50.4-11.7-22.6-48.7-23.9-60.8-1-6.6 12.5-3.7 27.7 4.8 37.3-2.9 2.1-5.8 4.2-8.7 6.4-6.5 4.8-13.1 9.5-19.6 14.2-13.1 9.4-26.2 18.8-39.4 28.1-26.7 18.8-53.6 37.2-80.7 55.3-13.4 8.9-26.8 17.8-40.3 26.6-.4-13.6-.7-27.2-1.1-40.8l-2.7-99.2c1.8-.6 3.5-1.3 5.2-2.3 11.6-6.8 17.9-22.2 13.1-35-5.2-14-22.8-22.4-36.2-14-2.8 1.8-5 4.1-6.5 6.7-7.8 5.9-12.2 15.8-9.4 26.6 1.9 7.2 6.7 12.7 12.7 16 1.7 63.7 3.4 127.3 5.2 191 0 1.1.1 2.2.1 3.4-35.4-29.9-70.9-59.9-106.3-89.8-20.3-17.2-40.7-34.4-61-51.6-4.1-3.5-8.5-6.8-12-11-3.3-4-4.7-8.9-5.4-14-1.9-12.7-2.1-25.9-2.9-38.8-1.3-22.5-1.9-45-2-67.6.7-.5 1.3-1 2-1.6 5.8-5.5 8.5-13.5 9.3-21.3.8-8.5-.8-17.8-7.6-23.5-6.2-5.1-14.9-6.5-22.5-3.8-.1 0-.2.1-.4.1q-2.85.45-5.1 2.7c-6.7 4.7-9.8 12.4-9.6 20.2-.6 2.9-.9 5.8-.5 8.9.8 8.2 5.4 16.3 12.9 20.1l.6.3c.1 19.5.7 39 1.7 58.5.7 13.4 1.5 26.8 2.6 40.2.8 9.2 2.3 17.8 6.3 25.6-.4.3-.8.6-1.2 1-78.8 77.9-162 151.2-249.3 219.5-21.6 16.9-43.4 33.5-65.5 49.7-21.9 16.2-44.5 31.5-66.5 47.6-10.3 7.6-20 16.1-25.2 28.1-5.5 12.9-5.2 27.2-5.5 40.9-.8 29.9-1.5 59.9-2.3 89.8-1.4 56.3-2.9 112.5-4.3 168.8-.2.1-.4.1-.5.2-16.9 7.1-26.5 24-28.1 41.6-4.6 8.7-5.7 19.3-1.3 28.7 10.3 22.1 39.9 26.7 59.3 14.7 20.5-12.7 36.1-43.2 24.5-66.4-6.2-12.4-19.2-19.9-32.8-21.5 1.2-47.4 2.4-94.8 3.7-142.2.8-29.3 1.5-58.5 2.3-87.8.4-14.7.2-29.6 1.3-44.4.9-11.9 5.4-20.5 14.3-28.2 9.2-8 20-14.5 29.9-21.6q16.5-11.7 33-23.7c22.3-16.3 44.4-33 66.3-49.9 43.1-33.3 85.2-67.9 126.3-103.6q69.45-60.45 135-125.1c7.3 6.7 15.4 12.7 22.8 19 10.4 8.8 20.9 17.6 31.3 26.4 20.9 17.6 41.7 35.2 62.6 52.9 23.6 19.9 47.2 39.9 70.8 59.8 1.4 50.4 2.7 100.8 4.1 151.1-45.4-38.5-88.9-79.2-130.2-122.1 1.6-1.9 2.9-4.1 4-6.4 7.4-16.8-4.5-36.7-22.4-39.5-9.7-1.5-20.1 2-25.2 10.8-4.6 7.8-5.1 17.8-3.6 26.5 1.7 9.6 8.1 18.3 17.5 21.3 4.5 1.4 9 1.5 13.2.3 45.9 47.8 94.5 93 145.5 135.4.6.5 1.3 1 2 1.4l3 111.9c-.5.3-.9.7-1.3 1.1-3.8 3.8-4.3 11.1 0 14.8 75.7 65.6 152.6 129.9 230.6 192.8 20.3 16.4 40.8 32.7 61.3 48.9l-5.7 197.5c-.4 13.5 20.6 13.5 21 0 1.8-64.3 3.7-128.7 5.5-193 3.2-3.9 3.9-11.4-.5-14.9m-903-28.6c-.6 5.8-3.1 11.8-6.3 16.9 3.6-9.4 4.6-19.8 2.2-29.9v-.7c3.3 3.5 4.7 7.8 4.1 13.7" class="st9"/><path d="M784.6 977.8c-27.1-1.1-54 .6-80.8 4.7-5.6.9-8.7 7.9-7.3 12.9 1.6 6 7.3 8.2 12.9 7.3 24.9-3.8 50.1-5 75.2-3.9 13.5.6 13.5-20.4 0-21" class="st9"/><path d="M720.5 937.1c-26 3.4-52.2 4.1-78.3 2-5.7-.5-10.5 5.2-10.5 10.5 0 6.1 4.8 10 10.5 10.5 26.1 2.1 52.3 1.4 78.3-2 5.6-.7 10.5-4.3 10.5-10.5 0-5.1-4.8-11.2-10.5-10.5" class="st9"/><path d="M871.8 1027.6c-21.4 1.6-42.8 3.3-64.3 4.9-5.7.4-10.5 4.5-10.5 10.5 0 5.3 4.8 10.9 10.5 10.5 21.4-1.6 42.8-3.3 64.3-4.9 5.7-.4 10.5-4.5 10.5-10.5 0-5.3-4.8-10.9-10.5-10.5" class="st9"/><path d="M674.3 1023.6c-20.9 0-41.7 1.7-62.3 4.5-5.6.8-8.7 8-7.3 12.9 1.7 6.1 7.3 8.1 12.9 7.3 18.8-2.6 37.8-3.7 56.8-3.8 13.4 0 13.4-21-.1-20.9" class="st9"/><path d="M2245.8 1250c-3.8-3.8-11.1-4.3-14.8 0-7.3 8.5-16.3 14-27.2 16.5-13.2 3-7.6 23.3 5.6 20.2 14.1-3.2 27-10.9 36.5-21.9 3.6-4.2 4.1-10.5-.1-14.8" class="st9"/><path d="M2333 1238.9c-9.1-1.7-18.3-3.4-27.4-5.1-5.6-1-11.3 1.5-12.9 7.3-1.4 5.1 1.7 11.9 7.3 12.9 9.1 1.7 18.3 3.4 27.4 5.1 5.6 1 11.3-1.5 12.9-7.3 1.5-5.1-1.7-11.8-7.3-12.9" class="st9"/><path d="M2413.8 1332.9c-4.6-14.5-14.2-26.6-27.5-34-11.8-6.6-22.4 11.5-10.6 18.1 8.5 4.8 14.9 12.1 17.9 21.5 4.1 12.8 24.3 7.3 20.2-5.6" class="st9"/><path d="M2381.5 1422.4c-4.9 9-9.7 18.1-14.6 27.1-6.4 11.9 11.7 22.5 18.1 10.6 4.9-9 9.7-18.1 14.6-27.1 6.4-11.9-11.7-22.5-18.1-10.6" class="st9"/><path d="M2335 1509.8c-3-5.2-9.3-6.3-14.4-3.8-9.2 4.6-18.4 9.2-27.5 13.8-5.1 2.5-6.5 9.7-3.8 14.4 3 5.2 9.3 6.3 14.4 3.8 9.2-4.6 18.4-9.2 27.5-13.8 5.1-2.6 6.5-9.8 3.8-14.4" class="st9"/><path d="M1926.9 566.4c-2.7-19.9-5.4-39.9-8.1-59.8-.8-5.6-8-8.7-12.9-7.3-6.1 1.7-8.1 7.3-7.3 12.9 2.7 19.9 5.4 39.9 8.1 59.8.8 5.6 8 8.7 12.9 7.3 6-1.6 8-7.2 7.3-12.9" class="st9"/><path d="M1980.8 377.7c-3.8-3.8-11.1-4.3-14.8 0-9.2 10.7-18.4 21.4-27.7 32.1-3.7 4.3-4.2 10.6 0 14.8 3.8 3.8 11.1 4.3 14.8 0 9.2-10.7 18.4-21.4 27.7-32.1 3.7-4.3 4.2-10.6 0-14.8" class="st9"/><path d="M2104.9 393.8c-10.8-2.5-21.7-5.1-32.5-7.6-13.1-3.1-18.8 17.2-5.6 20.2 10.8 2.5 21.7 5.1 32.5 7.6 13.2 3.2 18.8-17.1 5.6-20.2" class="st9"/><path d="M2200.3 492.6c-1.7-10.7-3.4-21.4-5-32.1-.9-5.6-7.9-8.7-12.9-7.3-6 1.6-8.2 7.3-7.3 12.9 1.7 10.7 3.4 21.4 5 32.1.9 5.6 7.9 8.7 12.9 7.3 5.9-1.6 8.2-7.3 7.3-12.9" class="st9"/><path d="M2166.9 582.7c-4.6-2.7-11.8-1.3-14.4 3.8-5.2 10.5-12.9 18.8-23.2 24.5-11.8 6.6-1.2 24.7 10.6 18.1 13.2-7.3 24-18.5 30.7-32 2.6-5.1 1.4-11.4-3.7-14.4" class="st9"/><path d="M2060.9 654.9h-27.5c-13.5 0-13.5 21 0 21h27.5c13.5 0 13.5-21 0-21" class="st9"/><path d="m1964.7 629.5-22.7-14.1c-11.5-7.2-22.1 11-10.6 18.1l22.7 14.1c11.6 7.1 22.1-11 10.6-18.1" class="st9"/><path d="M381.8 515.2c-17.3 19.3-24.4 44.7-20.2 70.2.9 5.6 7.9 8.7 12.9 7.3 5.9-1.6 8.3-7.3 7.3-12.9-2.9-17.7 2.9-36.5 14.8-49.8 9-10-5.8-24.9-14.8-14.8" class="st9"/><path d="M499.6 476.3c-3.1-5.4-9.1-6-14.4-3.8-8.5 3.7-17.7 4.3-26.8 3.2-5.6-.7-10.5 5.3-10.5 10.5 0 6.2 4.8 9.8 10.5 10.5 13 1.6 25.5-.9 37.4-6.1 5.3-2.2 6.4-9.9 3.8-14.3" class="st9"/><path d="M572.9 573.1c-6.2-9.1-12.5-18.2-18.7-27.3-3.2-4.7-9.2-6.8-14.4-3.8-4.6 2.7-7 9.7-3.8 14.4 6.2 9.1 12.5 18.2 18.7 27.3 3.2 4.7 9.2 6.8 14.4 3.8 4.6-2.8 7-9.7 3.8-14.4" class="st9"/><path d="M530.5 644.1c-3.6 11.1-14.3 19.7-26.1 20.5-5.7.4-10.5 4.6-10.5 10.5 0 5.4 4.8 10.9 10.5 10.5 21.4-1.4 39.7-15.4 46.4-35.9 4.2-12.9-16.1-18.4-20.3-5.6" class="st9"/><path d="m438.3 664.4-23-9.2c-5.3-2.1-11.5 2.3-12.9 7.3-1.6 6 2 10.8 7.3 12.9l23 9.2c5.3 2.1 11.5-2.3 12.9-7.3 1.7-5.9-2-10.7-7.3-12.9" class="st9"/><path d="M2149.4 1332c-2.5 8.6-6.4 16.7-12 23.7-3.5 4.4-4.3 10.5 0 14.8 3.7 3.7 11.3 4.4 14.8 0 7.9-9.9 13.9-20.8 17.4-33 3.8-12.9-16.4-18.5-20.2-5.5" class="st9"/><path d="M2176.9 1462.5c-1.7-7.9-3.5-15.8-5.2-23.7-1.2-5.5-7.7-8.8-12.9-7.3-5.7 1.6-8.6 7.4-7.3 12.9 1.7 7.9 3.5 15.8 5.2 23.7 1.2 5.5 7.7 8.8 12.9 7.3 5.6-1.6 8.5-7.4 7.3-12.9" class="st9"/><path d="M2242.2 1519.1c-11.9-7.6-26.2-11.2-40.2-9.6-5.6.6-10.5 4.4-10.5 10.5 0 5.2 4.8 11.1 10.5 10.5 10.7-1.2 20.5.9 29.6 6.7 11.4 7.4 22-10.8 10.6-18.1" class="st9"/><path d="m2495.5 936.7-20.4-3.3c1.9-10.7 2.2-21.7.7-32.3-.4-2.6-.8-5.2-1.4-7.8 3.2-1.2 6.3-2.3 9.5-3.5 5.5-2.1 10.8-4.6 12.6-10.7 1.6-5.4-.4-10.5-2.5-15.5s-4.3-9.8-7.1-14.5c-4.9-8.2-12.4-21.3-23.8-18.1-5.1 1.4-9.3 6-13.3 9.2-.9.7-1.7 1.4-2.6 2.1-.7-.7-1.3-1.4-2-2.1-3.7-3.6-7.6-6.9-12.5-8-4.6-3.5-9.9-5.9-15.4-7.4v-.2c-.8-10.5-2.1-20.9-3.9-31.3-.9-4.9-5.8-7.2-10.1-7.7-7.3-.9-14.5-.8-21.8.1-7.5 1-17.1 2-22.8 7.6s-5.8 14.4-5.5 21.9c.3 7.3 1.5 14.6 3.5 21.6-2.1 1.3-4.2 2.7-6.2 4.2-9.6-5.8-23-10.6-33.7-7.5-6.4 1.9-9.9 7.5-13.3 12.8-3.5 5.5-7 11.1-10.2 16.8-3.1 5.7-5.9 11.7-8.2 17.8-2.2 5.8-4.7 12.4-2.6 18.6 2.4 7.3 10.2 10.5 16.8 13 3.5 1.4 7.2 2.3 10.9 3-.5 10.3.5 20.6 3.1 30.8-10.5 4.7-19.8 11.4-23.8 23.2-2.5 7.6-1 15 1.7 22.3 3 8.4 6 16.7 9 25.1 2.8 7.9 11.2 9.7 17.5 4.6 9.8-7.8 19.9-15.2 30.2-22.2 4.5 3.4 9.4 6.4 14.5 8.7 3.8 1.7 7.7 3.1 11.6 4-.3 5.7-.2 11.4.4 17 .6 6.1 1.3 12.3 6.1 16.7 8.5 7.8 24.9 3.9 34.7.8 10.4-3.4 23.8-8.7 24.1-21.6.2-8-3.5-16.3-8-23.5 7.1-4.5 13.4-9.9 18.9-16.1 4.6 5 11.1 9.5 17 9.6 9.9 0 14.4-11.2 18.9-18.3 5.2-8.1 10.3-16.2 15.5-24.3 3.5-5.5.6-14.5-6.1-15.6m-94.9-2.6c-7.4 6.9-18.1 9.3-27.1 4.2-10.8-6.1-10.1-18.9-6.9-29.4 3.4-11.3 12.7-24.6 26.1-19.8 1.9.7 3.9.6 5.8 0 5.4 3.2 9.9 8.6 11.7 14.3 3.5 10.9-1.5 23.1-9.6 30.7" class="st9"/><path d="m1065.8 2302.4-20.4-3.3c1.9-10.7 2.2-21.7.7-32.3-.4-2.6-.8-5.2-1.4-7.8 3.2-1.2 6.3-2.3 9.5-3.5 5.5-2.1 10.8-4.6 12.6-10.7 1.6-5.4-.4-10.5-2.5-15.5s-4.3-9.8-7.1-14.5c-4.9-8.2-12.4-21.3-23.8-18.1-5.1 1.4-9.3 6-13.3 9.2-.9.7-1.7 1.4-2.6 2.1-.7-.7-1.3-1.4-2-2.1-3.7-3.6-7.6-6.9-12.5-8-4.6-3.5-9.9-5.9-15.4-7.4v-.2c-.8-10.5-2.1-20.9-3.9-31.3-.9-4.9-5.8-7.2-10.1-7.7-7.3-.9-14.5-.8-21.8.1-7.5 1-17.1 2-22.8 7.6s-5.8 14.4-5.5 21.9c.3 7.3 1.5 14.6 3.5 21.6-2.1 1.3-4.2 2.7-6.2 4.2-9.6-5.8-23-10.6-33.7-7.5-6.4 1.9-9.9 7.5-13.3 12.8-3.5 5.5-7 11.1-10.2 16.8-3.1 5.7-5.9 11.7-8.2 17.8-2.2 5.8-4.7 12.4-2.6 18.6 2.4 7.3 10.2 10.5 16.8 13 3.5 1.4 7.2 2.3 10.9 3-.5 10.3.5 20.6 3.1 30.8-10.5 4.7-19.8 11.4-23.8 23.2-2.5 7.6-1 15 1.7 22.3 3 8.4 6 16.7 9 25.1 2.8 7.9 11.2 9.7 17.5 4.6 9.8-7.8 19.9-15.2 30.2-22.2 4.5 3.4 9.4 6.4 14.5 8.7 3.8 1.7 7.7 3.1 11.6 4-.3 5.7-.2 11.4.4 17 .6 6.1 1.3 12.3 6.1 16.7 8.5 7.8 24.9 3.9 34.7.8 10.4-3.4 23.8-8.7 24.1-21.6.2-8-3.5-16.3-8-23.5 7.1-4.5 13.4-9.9 18.9-16.1 4.6 5 11.1 9.5 17 9.6 9.9 0 14.4-11.2 18.9-18.3 5.2-8.1 10.3-16.2 15.5-24.3 3.5-5.5.5-14.5-6.1-15.6m-95-2.6c-7.4 6.9-18.1 9.3-27.1 4.2-10.8-6.1-10.1-18.9-6.9-29.4 3.4-11.3 12.7-24.6 26.1-19.8 1.9.7 3.9.6 5.8 0 5.4 3.2 9.9 8.6 11.7 14.3 3.5 10.9-1.5 23.1-9.6 30.7" class="st9"/><path d="M808 2099.2c-19-21.6-38.1-43.1-57.1-64.7-3.8-4.3-11-3.8-14.8 0-4.2 4.2-3.8 10.6 0 14.8 19 21.6 38.1 43.1 57.1 64.7 3.8 4.3 11 3.8 14.8 0 4.2-4.2 3.8-10.5 0-14.8" class="st9"/><path d="M662.8 1921.5c-17.4-21.8-34.7-43.7-52.1-65.5-3.5-4.4-11.2-3.7-14.8 0-4.4 4.4-3.5 10.4 0 14.8 17.4 21.8 34.7 43.7 52.1 65.5 3.5 4.4 11.2 3.7 14.8 0 4.4-4.3 3.6-10.3 0-14.8" class="st9"/><path d="M800 1962.7c-19.6-30.4-43.6-57.8-71.4-80.9-4.4-3.6-10.6-4.3-14.8 0-3.7 3.7-4.4 11.2 0 14.8 26.5 22 49.5 47.7 68.2 76.6 7.2 11.4 25.4.9 18-10.5" class="st9"/><g class="st1"><path d="M530.8 1487.2c-15-25.8-37.9-47.5-65.8-58.5-24.1-9.6-52.3-10.2-77.1-2.3-2.8-.9-6-.6-9 .7-25.3 11.3-42.5 34.8-54.5 59-13.7 27.6-26.6 58.7-27.5 89.9-1.5 53.3 38.4 103.1 88.7 118 52.7 15.7 110.1-9.6 141.6-52.8 32.4-44.7 30.7-107.2 3.6-154M518.1 1616c-21 40-67.6 67.2-113.1 60.9-43.2-6-80.7-43.6-86.4-86.9-3.9-29.1 8.3-59 20.2-85.1 7.8-17.2 17.5-34.4 31.4-46.9.3-.1.5-.3.8-.4 20.9-13.6 46.8-18.8 71.3-13.7 25.1 5.2 46.7 20.7 61.9 41.1 27.4 36.6 35.6 89.6 13.9 131" class="st10"/><path d="M495.3 1556.3c-.3-13.5-21.3-13.5-21 0 .5 19.7-5.1 40.2-20.2 53.6-14.1 12.5-34.4 15.6-50.6 5.6-33.1-20.4-41.1-68.5-21.4-100.5 10.8-17.6 28.4-30.1 48.4-34.8 13.2-3.1 7.6-23.3-5.6-20.2-23.3 5.5-43.4 19.7-57.3 39-14.5 20-19.6 44.9-16.1 69.2 3.6 24.7 17 48.1 37.3 62.8 21.3 15.4 49.6 15.2 71.4.7 24.8-16.6 35.8-46.4 35.1-75.4" class="st10"/></g></g></svg>