<svg width="336" height="55" viewBox="0 0 336 55" fill="none" xmlns="http://www.w3.org/2000/svg">
<path d="M157.681 48.6012C156.748 48.6012 155.413 48.3759 154.372 47.3078C153.375 46.283 152.869 44.7209 152.869 42.6671V41.7853C152.869 41.7853 149.927 48.6012 143.412 48.6012C139.384 48.6012 136.57 45.6439 136.57 41.4083V26.4442C136.57 23.8704 135.92 21.6085 134.813 20.2675C137.447 20.0941 140.25 19.2882 142.628 18.0208V40.2254C142.628 41.6488 143.081 42.8556 143.943 43.7157C144.723 44.4956 145.777 44.9268 146.908 44.9268C148.612 44.9268 150.174 44.0125 151.19 42.4201C152.256 40.7584 152.866 38.3016 152.866 35.6801V26.4485C152.866 23.8032 152.256 21.5869 151.177 20.2653C153.813 20.092 156.618 19.286 158.996 18.0186V41.2047C158.996 44.7968 160.648 45.7197 161.818 45.9212C161.24 47.2016 160.061 48.6033 157.681 48.6033V48.6012Z" fill="black"/>
<path d="M177.199 48.5988C175.913 48.5988 173.95 48.042 172.428 47.2469C171.579 46.8115 170.376 46.428 169.018 46.428C166.822 46.428 165.239 47.4679 163.773 48.2782V15.6266C163.775 12.9748 163.147 10.7584 162.04 9.44336C164.697 9.27221 167.437 8.48143 169.839 7.19452V23.7251C169.839 23.7251 173.047 17.6761 179.304 17.6761C181.674 17.6761 183.662 18.4409 185.382 20.0138C188.009 22.4663 189.577 27.0073 189.577 32.1571C189.647 36.722 188.295 41.2262 185.96 44.2116C183.757 47.0801 180.73 48.5967 177.203 48.5967L177.199 48.5988ZM176.069 20.6551C176.006 20.6551 175.943 20.6551 175.878 20.6573C172.828 20.7353 169.835 24.5115 169.835 28.1556V39.532C169.835 43.553 172.952 47.8384 177.838 47.8384C178.109 47.8384 178.386 47.8167 178.657 47.7734C180.838 47.4376 182.404 45.8214 183.313 42.9681C184.082 40.4376 184.301 36.6895 183.913 32.6858C183.558 29.9321 182.778 26.1321 181.076 23.6232C179.805 21.6799 178.072 20.6508 176.069 20.6508V20.6551Z" fill="black"/>
<path d="M320.554 48.6121C317.851 48.6121 315.185 47.8885 312.839 46.5214C309.257 44.4849 306.695 41.1723 305.625 37.1924C304.55 33.2038 305.107 29.0419 307.186 25.4758C309.946 20.6987 315.066 17.7305 320.55 17.7305C323.251 17.7305 325.93 18.4541 328.297 19.8234C335.648 24.0459 338.183 33.4876 333.948 40.8711C331.191 45.6483 326.06 48.6142 320.556 48.6142L320.554 48.6121ZM315.997 19.5179C314.932 19.5179 313.959 19.7671 313.106 20.261C308.912 22.6854 308.841 30.4588 312.945 37.5888C316.125 43.1113 321.024 46.8247 325.137 46.8247C326.203 46.8247 327.175 46.5756 328.029 46.0816C332.218 43.6529 332.289 35.8816 328.189 28.7538C325.007 23.2292 320.108 19.5179 315.997 19.5179Z" fill="black"/>
<path d="M69.3077 48.5948C70.4275 47.2169 71.06 45.0114 71.0621 42.4462V13.0357C71.0621 10.4662 70.4297 8.26072 69.3099 6.88281C74.5016 6.88281 80.7048 6.88281 85.6777 6.88931C90.7199 6.88931 94.846 8.91934 97.6119 12.7584C100.237 16.4025 101.623 21.5848 101.623 27.742C101.623 33.8993 100.235 39.0816 97.6097 42.7257C94.8438 46.5648 90.7178 48.5926 85.6777 48.5926H69.3077V48.5948ZM77.549 48.0553H82.392C86.5376 48.0553 89.7301 46.3394 91.8809 42.9553C94.0446 39.5496 95.1427 34.4301 95.1427 27.7399C95.1427 21.0475 94.0468 15.928 91.883 12.5244C89.7323 9.14032 86.5397 7.42228 82.392 7.42228L77.549 7.42228L77.5469 48.0575L77.549 48.0553Z" fill="black"/>
<path d="M118.528 48.599C115.825 48.599 113.159 47.8754 110.813 46.5083C107.231 44.4696 104.668 41.157 103.599 37.1771C102.526 33.1886 103.081 29.0289 105.16 25.4628C107.92 20.6856 113.04 17.7175 118.524 17.7175C121.225 17.7175 123.902 18.4411 126.271 19.8103C133.622 24.0329 136.156 33.4746 131.922 40.858C129.165 45.6352 124.034 48.6012 118.53 48.6012L118.528 48.599ZM113.971 19.5048C112.905 19.5048 111.933 19.754 111.08 20.248C106.889 22.6723 106.815 30.4458 110.919 37.5758C114.097 43.0982 118.998 46.8116 123.111 46.8116C124.177 46.8116 125.149 46.5625 126.003 46.0685C130.192 43.6399 130.263 35.8686 126.163 28.7407C122.981 23.2161 118.082 19.5048 113.971 19.5048Z" fill="black"/>
<path d="M197.16 48.5988C195.802 48.5988 194.661 48.1524 193.86 47.3075C192.9 46.2936 192.413 44.7315 192.413 42.6603V15.854L192.417 15.6417C192.417 13.0635 191.765 10.7995 190.656 9.45627C193.322 9.28729 196.071 8.49867 198.479 7.20526V41.1936C198.477 42.6928 198.785 43.8714 199.391 44.6969C199.879 45.3598 200.559 45.7779 201.369 45.9144C200.786 47.1948 199.593 48.5988 197.156 48.5988H197.16Z" fill="black"/>
<path d="M286.301 48.6031C287.316 47.3205 287.921 45.2796 287.986 42.8878L287.99 42.6733V42.4567L287.994 26.4201C287.994 23.7769 287.383 21.5606 286.303 20.2369C288.941 20.0635 291.75 19.2554 294.13 17.9858V24.9599L294.938 23.569C297.13 19.7949 299.918 17.7584 302.398 17.7584C303.541 17.7584 304.581 18.1462 305.319 18.8503C306 19.4981 306.389 20.382 306.389 21.2746C306.389 23.5581 304.496 25.3303 302.868 25.3303C301.956 25.3303 301.347 24.6869 300.55 23.8528C299.703 22.9688 298.752 22.1326 297.743 22.1326C296.658 22.1326 295.402 24.3901 294.254 26.1125L294.132 26.2923V42.4545C294.132 45.0392 294.741 47.2425 295.82 48.6031H286.301Z" fill="black"/>
<path d="M258.72 6.67023L229.421 6.67023L228.243 14.1859C231.488 8.41211 235.059 7.63433 241.358 7.63649L250.74 7.63649L226.746 48.8047H256.045L257.212 41.51C253.981 47.0628 250.394 47.8471 244.098 47.8449H234.717L258.72 6.67023Z" fill="black"/>
<path d="M216.829 48.6092C212.685 48.6092 208.8 46.9973 205.885 44.0704C202.976 41.1521 201.373 37.2718 201.373 33.1468C201.373 24.6215 208.306 17.6865 216.829 17.6865C219.454 17.6865 222.28 18.5921 224.392 20.1C226.047 21.2829 228.033 23.365 228.085 26.5714V26.7036C228.085 28.9784 227.037 30.2913 224.693 30.9673C224.41 31.0496 224.098 31.1254 223.768 31.1926C222.978 31.3529 222.127 31.4612 221.306 31.5674L221.247 31.5739C220.686 31.6454 220.106 31.7169 219.558 31.8079C218.317 32.0332 217.078 32.2737 215.88 32.5098L215.7 32.5445C214.724 32.7352 213.803 32.915 212.971 33.0666C212.651 33.1338 212.367 33.2053 212.099 33.2898C210.838 33.6278 209.69 34.1477 208.789 34.7912C208.364 35.0967 208.009 35.413 207.73 35.7336L207.637 35.8398L207.695 35.9676C207.797 36.1886 207.907 36.4096 208.02 36.6284C208.137 36.8537 208.254 37.0769 208.377 37.2957C209.077 38.5588 209.881 39.7265 210.769 40.7643L210.816 40.8184L210.87 40.8314C211.078 41.0936 211.299 41.3557 211.531 41.6092C211.635 41.724 211.741 41.8367 211.849 41.9472C212.213 42.3198 212.595 42.673 212.982 42.9958C215.41 45.0063 218.152 46.0679 220.916 46.0679C222.798 46.0679 224.672 45.5783 226.484 44.6098C226.504 44.599 226.526 44.5947 226.554 44.5947C226.604 44.5947 226.656 44.6185 226.69 44.6597C226.716 44.6922 226.729 44.7377 226.725 44.7875C226.721 44.8287 226.697 44.8698 226.66 44.9023C223.885 47.1858 220.117 48.6071 216.829 48.6071V48.6092ZM210.357 20.5203C209.939 20.6482 209.536 20.815 209.162 21.0143C207.988 21.6729 207.087 22.6717 206.474 23.9803C205.861 25.291 205.581 26.8336 205.644 28.5624C205.644 28.5971 205.644 28.6426 205.648 28.6881C205.666 29.0737 205.7 29.4745 205.752 29.871C205.932 31.1753 206.199 32.1394 206.558 33.279C206.714 33.7838 206.894 34.2864 207.102 34.8107L207.249 35.1833C207.249 35.1833 208.629 33.4479 211.637 32.2585C211.668 32.2455 212.521 31.9335 212.521 31.9335C213.314 31.6671 216.64 30.9781 216.64 30.9781C219.317 30.4538 220.987 29.2276 221.343 27.529C221.438 27.0784 221.436 26.6039 221.338 26.1229C221.042 24.615 219.813 23.053 217.97 21.8376C216.361 20.8041 214.477 20.2257 212.664 20.2084H212.577C211.806 20.2084 211.07 20.3102 210.387 20.5117L210.368 20.516L210.355 20.5225L210.357 20.5203Z" fill="black"/>
<path d="M273.092 48.6092C268.948 48.6092 265.063 46.9973 262.147 44.0704C259.238 41.1521 257.636 37.2718 257.636 33.1468C257.636 24.6215 264.569 17.6865 273.092 17.6865C275.717 17.6865 278.543 18.5921 280.655 20.1C282.31 21.2829 284.296 23.365 284.348 26.5714V26.7036C284.348 28.9784 283.3 30.2913 280.956 30.9673C280.672 31.0496 280.36 31.1254 280.031 31.1926C279.241 31.3529 278.389 31.4612 277.569 31.5674L277.51 31.5739C276.949 31.6454 276.369 31.7169 275.821 31.8079C274.58 32.0332 273.341 32.2737 272.143 32.5098L271.963 32.5445C270.986 32.7352 270.066 32.915 269.234 33.0666C268.913 33.1338 268.63 33.2053 268.361 33.2898C267.101 33.6278 265.953 34.1477 265.052 34.7912C264.627 35.0967 264.272 35.413 263.993 35.7336L263.899 35.8398L263.958 35.9676C264.06 36.1886 264.17 36.4096 264.283 36.6284C264.4 36.8537 264.517 37.0769 264.64 37.2957C265.34 38.5588 266.143 39.7265 267.031 40.7643L267.079 40.8184L267.133 40.8314C267.341 41.0936 267.562 41.3557 267.794 41.6092C267.898 41.724 268.004 41.8367 268.112 41.9472C268.476 42.3198 268.857 42.673 269.245 42.9958C271.673 45.0063 274.415 46.0679 277.179 46.0679C279.061 46.0679 280.934 45.5783 282.747 44.6098C282.767 44.599 282.788 44.5947 282.816 44.5947C282.866 44.5947 282.918 44.6185 282.953 44.6597C282.979 44.6922 282.992 44.7377 282.988 44.7875C282.983 44.8287 282.959 44.8698 282.923 44.9023C280.148 47.1858 276.379 48.6071 273.092 48.6071V48.6092ZM266.62 19.9982C266.202 20.1304 265.799 20.3037 265.424 20.5095C264.25 21.1919 263.349 22.2254 262.736 23.5816C262.123 24.94 261.844 26.5367 261.907 28.3263C261.907 28.361 261.907 28.4108 261.911 28.4563C261.928 28.8549 261.963 29.2709 262.015 29.6804C262.195 31.0323 262.461 32.0289 262.821 33.2096C262.977 33.7339 263.157 34.2517 263.364 34.7977L263.512 35.1833C263.512 35.1833 264.891 33.3873 267.9 32.1545C267.93 32.1415 268.784 31.8187 268.784 31.8187C269.576 31.5414 272.903 30.8286 272.903 30.8286C275.58 30.2848 277.25 29.0152 277.605 27.256C277.701 26.7902 277.698 26.2984 277.601 25.798C277.304 24.2359 276.076 22.6175 274.233 21.3609C272.624 20.2907 270.739 19.6927 268.927 19.6732H268.84C268.069 19.6732 267.332 19.7794 266.65 19.9874L266.631 19.9917L266.618 19.9982H266.62Z" fill="black"/>
<path d="M35.8381 12.8282V6.85425H5.97327V48.667H14.9367V45.6825H20.9057V42.693H26.8796V39.7085H35.8381V36.724H38.8275V33.7346H35.8381V36.719V39.7035H26.8796V36.719V24.7711H41.812V33.7295V15.8127H35.8381V12.8232V12.8282ZM35.8431 33.7396H38.8275V36.724H35.8431V33.7396ZM23.8952 42.693H20.9057V45.6825H8.96276V27.7606H11.9472V30.7501H14.9367V33.7346H17.9212V36.724H20.9057V39.7085H23.8952V42.693ZM26.8796 21.7866H23.8952V24.7761H14.9367V21.7866H23.8952H11.9472V12.8282H14.9367V9.84374H23.8952V12.8282H26.8796V21.7866Z" fill="#F2F2F2"/>
<path d="M20.906 12.8284H14.937V18.8023H20.906V12.8284Z" fill="#29F91E"/>
<path d="M23.8894 12.8282H23.8945V9.84369H14.936V12.8282H20.905V18.8021H14.936H14.931V12.8282H14.936H11.9465V21.7866H23.8945H23.8894V12.8282Z" fill="#087903"/>
<path d="M35.8379 27.7603H29.8639V33.7343H35.8379V27.7603Z" fill="#7C0404"/>
<path d="M26.8801 36.7239H28.0006H35.8386V33.7344H29.8646V27.7604H35.8386V33.7344H38.8281V24.7759H26.8801V36.7239Z" fill="#E80000"/>
<path d="M17.9173 39.7085V36.724H14.9378H14.9328V33.7345H11.9433V30.7501H8.96387V42.693H20.9068V39.7085H17.9173Z" fill="#0919D8"/>
<path d="M11.948 30.7497V27.7606H8.96387V30.7497H11.943H11.948Z" fill="#16B5F4"/>
<path d="M20.9062 36.7236H17.922V39.7078H20.9062V36.7236Z" fill="#16B5F4"/>
<path d="M20.9069 39.7083V42.6924H23.896V39.7083H20.9069Z" fill="#16B5F4"/>
<path d="M17.9161 36.7234H17.9212V33.7342H14.937V36.7234H17.9161Z" fill="#16B5F4"/>
<path d="M14.9379 30.7498H11.9487V33.734H14.9379V30.7498Z" fill="#16B5F4"/>
<path d="M44.7959 6.85431H41.8118V9.84349H44.7959V6.85431Z" fill="#9E9E9E"/>
<path d="M47.7847 9.84375H44.7955V12.8279H47.7847V9.84375Z" fill="#9E9E9E"/>
<path d="M35.8372 12.8281H38.8267V6.85415H41.8111V3.86968H38.8267V0.880188H35.8372V6.85415V12.8281Z" fill="#9E9E9E"/>
<path d="M20.9068 42.6931H8.96387V45.6826H20.9068V42.6931Z" fill="black"/>
<path d="M47.7874 12.8284H35.8395V15.8128H41.8134V15.8179H44.7979V24.7763H47.7874V12.8284Z" fill="black"/>
<path d="M44.7981 51.6565H26.8812V54.646H47.7876V54.4601V51.6565V36.7241H44.7981V51.6565Z" fill="black"/>
<path d="M2.98852 3.86962H35.8378V0.880127H-0.000976562V0.885149V54.6408V54.6458H8.95745V51.6563H2.98852V3.86962Z" fill="black"/>
<path d="M38.8278 24.7759V33.7394V33.7344L41.8122 33.7394V24.7759H38.8278Z" fill="black"/>
<path d="M26.8812 36.7241V39.7086H35.8397V36.7241H28.0017H26.8812Z" fill="black"/>
<path d="M38.8269 33.7395H35.8428V36.7237H38.8269V33.7395Z" fill="black"/>
<path d="M14.9314 24.776H23.8949V21.7865H14.9314V24.776Z" fill="black"/>
<path d="M26.8797 12.8284H23.8953V21.7868H26.8797V12.8284Z" fill="black"/>
<path d="M38.8101 39.8399V45.7653H29.9196V48.7255H41.7703V39.8399H38.8101Z" fill="black"/>
</svg>
